<?xml version="1.0" standalone="no"?>
<!DOCTYPE svg PUBLIC "-//W3C//DTD SVG 20010904//EN"
 "http://www.w3.org/TR/2001/REC-SVG-20010904/DTD/svg10.dtd">
<svg version="1.0" xmlns="http://www.w3.org/2000/svg"
 width="618.000000pt" height="618.000000pt" viewBox="0 0 618.000000 618.000000"
 preserveAspectRatio="xMidYMid meet">
<metadata>
Created by potrace 1.14, written by Peter Selinger 2001-2017
</metadata>
<g transform="translate(0.000000,618.000000) scale(0.100000,-0.100000)"
fill="#000000" stroke="none">
<path d="M1989 5475 c-37 -20 -42 -32 -53 -135 -4 -30 -8 -71 -11 -90 -2 -19
-7 -60 -10 -90 -3 -30 -8 -71 -10 -90 -2 -19 -7 -60 -10 -90 -9 -80 -13 -118
-21 -180 -4 -30 -8 -66 -9 -80 -4 -40 -16 -151 -21 -189 -9 -78 -16 -137 -19
-161 -2 -14 -6 -54 -10 -90 -3 -36 -8 -83 -12 -105 -3 -22 -6 -53 -8 -70 -6
-70 -18 -171 -22 -190 -11 -51 -10 -267 2 -340 25 -153 75 -296 112 -320 12
-9 32 -33 43 -54 23 -46 29 -40 -102 -111 -91 -50 -106 -64 -114 -109 -4 -20
41 -61 67 -61 19 0 155 68 217 108 23 15 26 14 72 -39 27 -30 48 -58 47 -63
-2 -4 -43 -31 -92 -58 -50 -27 -96 -56 -102 -65 -18 -24 -16 -67 5 -85 37 -33
54 -29 176 37 66 36 124 65 129 65 13 0 79 -51 112 -87 38 -42 154 -102 281
-146 54 -19 102 -35 107 -35 4 0 20 -3 35 -6 62 -14 80 -17 137 -24 100 -11
334 -5 420 12 127 24 131 25 207 52 116 42 229 103 284 153 60 54 95 81 106
81 8 0 49 -22 186 -97 24 -13 53 -25 65 -27 52 -8 92 55 63 99 -8 13 -50 42
-93 66 -122 66 -116 60 -86 95 14 16 35 42 48 58 l22 28 64 -35 c35 -19 86
-47 112 -61 59 -32 87 -33 116 -2 18 19 21 31 16 54 -7 35 -11 39 -85 79 -51
28 -125 69 -142 80 -12 7 28 73 62 102 55 47 119 288 122 458 1 80 -8 215 -17
253 -2 8 -7 51 -10 95 -8 97 -24 130 -70 146 -29 11 -35 18 -35 41 0 20 8 31
29 42 27 15 72 66 97 112 19 33 15 154 -6 195 -31 59 -83 103 -152 129 -35 12
-36 33 -3 48 14 7 30 24 36 39 9 25 9 49 -6 178 -9 76 -14 130 -20 190 -3 33
-8 76 -10 95 -2 19 -7 62 -10 95 -5 49 -12 65 -36 88 -32 29 -45 32 -81 18
-24 -10 -46 -30 -343 -316 -103 -99 -192 -183 -199 -187 -7 -4 -32 0 -57 8
-122 43 -230 57 -419 58 -192 0 -272 -11 -417 -55 l-62 -20 -34 33 c-19 18
-134 130 -256 248 -123 118 -233 220 -244 227 -28 16 -46 15 -78 -2z"/>
<path d="M3559 2516 c-12 -13 -66 -126 -119 -252 -100 -235 -103 -239 -167
-259 -20 -6 -23 -3 -23 23 0 17 -10 40 -24 55 -23 25 -29 26 -118 25 -104 -1
-172 7 -215 23 -15 6 -28 9 -28 8 0 -1 -25 6 -55 16 -97 32 -262 120 -418 222
-50 33 -57 35 -130 34 -323 -8 -582 -139 -734 -371 -49 -75 -105 -202 -124
-279 -2 -9 -8 -34 -13 -56 -5 -22 -12 -60 -16 -85 -3 -25 -8 -58 -11 -73 -3
-15 -6 -81 -6 -145 -1 -180 15 -255 56 -269 11 -4 152 -8 311 -9 160 -1 291
-2 293 -3 2 -1 -4 -11 -12 -23 -23 -32 -20 -73 8 -105 l24 -28 1572 0 c1398
-1 1574 1 1597 15 19 12 59 96 184 390 88 206 221 519 296 695 167 392 163
381 151 417 -21 59 34 56 -1161 56 l-1097 0 -21 -22z"/>
</g>
</svg>
